<?xml version="1.0" encoding="utf-8"?>
<!-- Generator: Adobe Illustrator 26.3.1, SVG Export Plug-In . SVG Version: 6.00 Build 0)  -->
<svg version="1.1" id="Livello_1" xmlns="http://www.w3.org/2000/svg" xmlns:xlink="http://www.w3.org/1999/xlink" x="0px" y="0px"
	 viewBox="0 0 41.66 39.15" style="enable-background:new 0 0 41.66 39.15;" xml:space="preserve">
<style type="text/css">
	.st0{clip-path:url(#SVGID_00000104686274786528822720000005947177410610057909_);fill:#FFFFFF;}
</style>
<g>
	<defs>
		<rect id="SVGID_1_" y="0" width="41.66" height="49.87"/>
	</defs>
	<clipPath id="SVGID_00000021097529769516060030000014779773980353305269_">
		<use xlink:href="#SVGID_1_"  style="overflow:visible;"/>
	</clipPath>
	<path style="clip-path:url(#SVGID_00000021097529769516060030000014779773980353305269_);fill:#FFFFFF;" d="M7.06,9.29
		c0-1.95,1.31-3.73,3.71-3.73s3.7,1.76,3.7,3.69c0,1.95-1.26,3.76-3.67,3.76C8.4,13,7.06,11.23,7.06,9.29 M12.87,9.29
		c0-1.34-0.62-2.5-2.06-2.5c-1.44,0-2.12,1.12-2.12,2.46c0,1.35,0.66,2.52,2.09,2.52C12.22,11.77,12.87,10.63,12.87,9.29"/>
	<path style="clip-path:url(#SVGID_00000021097529769516060030000014779773980353305269_);fill:#FFFFFF;" d="M15.82,5.69h2.36
		c1.56,0,2.75,0.72,2.75,2.27c0,1.56-1.13,2.36-2.92,2.36h-0.66v2.56h-1.53V5.69z M18.03,9.16c0.96,0,1.37-0.39,1.37-1.19
		c0-0.72-0.4-1.12-1.34-1.12h-0.71v2.31H18.03z"/>
	<polygon style="clip-path:url(#SVGID_00000021097529769516060030000014779773980353305269_);fill:#FFFFFF;" points="22.21,5.69 
		26.36,5.69 26.36,6.94 23.71,6.94 23.71,8.56 26.04,8.56 26.04,9.75 23.71,9.75 23.71,11.62 26.43,11.62 26.43,12.87 22.21,12.87 	
		"/>
	<path style="clip-path:url(#SVGID_00000021097529769516060030000014779773980353305269_);fill:#FFFFFF;" d="M27.92,5.69h1.53
		l2.59,3.72c0.43,0.62,0.69,1.09,0.75,1.21h0.02c-0.01-0.1-0.04-0.58-0.04-1.13v-3.8h1.38v7.19h-1.39l-2.79-3.99
		c-0.39-0.54-0.6-0.94-0.69-1.08h-0.02c0.01,0.1,0.04,0.51,0.04,0.96v4.11h-1.38V5.69z"/>
	<path style="clip-path:url(#SVGID_00000021097529769516060030000014779773980353305269_);fill:#FFFFFF;" d="M7.46,15.11h2.17
		c2.83,0,4.11,1.42,4.11,3.5c0,2.07-1.31,3.69-4.16,3.69H7.46V15.11z M9.69,21.08c1.62,0,2.44-0.83,2.44-2.43
		c0-1.61-0.79-2.32-2.49-2.32H8.98v4.75H9.69z"/>
	<path style="clip-path:url(#SVGID_00000021097529769516060030000014779773980353305269_);fill:#FFFFFF;" d="M17.16,15.11h1.47
		l2.82,7.19h-1.66l-0.49-1.35h-2.87l-0.48,1.35h-1.53L17.16,15.11z M18.86,19.73l-0.62-1.71c-0.23-0.62-0.32-1.08-0.39-1.24h-0.02
		c-0.05,0.17-0.17,0.66-0.38,1.24l-0.61,1.71H18.86z"/>
	<polygon style="clip-path:url(#SVGID_00000021097529769516060030000014779773980353305269_);fill:#FFFFFF;" points="24.1,16.36 
		22.11,16.36 22.11,15.11 27.6,15.11 27.6,16.36 25.63,16.36 25.63,22.3 24.1,22.3 	"/>
	<path style="clip-path:url(#SVGID_00000021097529769516060030000014779773980353305269_);fill:#FFFFFF;" d="M31.02,15.11h1.47
		l2.82,7.19h-1.66l-0.49-1.35h-2.87l-0.48,1.35h-1.53L31.02,15.11z M32.72,19.73l-0.62-1.71c-0.23-0.62-0.32-1.08-0.39-1.24H31.7
		c-0.05,0.17-0.17,0.66-0.38,1.24l-0.61,1.71H32.72z"/>
	<polygon style="clip-path:url(#SVGID_00000021097529769516060030000014779773980353305269_);fill:#FFFFFF;" points="7.46,24.23 
		9.05,24.23 9.05,28.05 13.74,28.05 13.74,24.23 15.33,24.23 15.33,33.61 13.74,33.61 13.74,29.36 9.05,29.36 9.05,33.61 
		7.46,33.61 	"/>
	<path style="clip-path:url(#SVGID_00000021097529769516060030000014779773980353305269_);fill:#FFFFFF;" d="M18.03,30.03v-5.8h1.59
		v5.65c0,1.75,0.68,2.57,2.28,2.57c1.52,0,2.2-0.96,2.2-2.42v-5.8h1.48v5.67c0,2.43-1.21,3.87-3.72,3.87
		C19.22,33.78,18.03,32.37,18.03,30.03"/>
	<path style="clip-path:url(#SVGID_00000021097529769516060030000014779773980353305269_);fill:#FFFFFF;" d="M28.48,24.23h2.83
		c1.75,0,3.17,0.61,3.17,2.34c0,1.17-0.65,1.84-1.68,2.11v0.03c1.14,0.18,2.07,0.96,2.07,2.28c0,1.91-1.48,2.62-3.6,2.62h-2.79
		V24.23z M31.12,28.16c1.23,0,1.76-0.44,1.76-1.38c0-0.9-0.59-1.3-1.73-1.3h-1.11v2.68H31.12z M31.21,32.36
		c1.36,0,2.04-0.42,2.04-1.45c0-0.99-0.55-1.55-1.96-1.55h-1.25v3H31.21z"/>
</g>
</svg>
